<?xml version="1.0" encoding="UTF-8"?>
<svg xmlns="http://www.w3.org/2000/svg" xmlns:xlink="http://www.w3.org/1999/xlink" width="960.009449pt" height="540pt" viewBox="0 0 960.009449 540" version="1.2">
<defs>
<g>
<symbol overflow="visible" id="glyph0-0">
<path style="stroke:none;" d="M 5.671875 -27.4375 C 6.585938 -28.175781 7.628906 -28.789062 8.796875 -29.28125 C 9.972656 -29.78125 11.359375 -30.03125 12.953125 -30.03125 C 14.109375 -30.03125 15.140625 -29.875 16.046875 -29.5625 C 16.953125 -29.257812 17.71875 -28.828125 18.34375 -28.265625 C 18.976562 -27.710938 19.457031 -27.039062 19.78125 -26.25 C 20.113281 -25.46875 20.28125 -24.597656 20.28125 -23.640625 C 20.28125 -22.765625 20.171875 -22.015625 19.953125 -21.390625 C 19.742188 -20.765625 19.46875 -20.21875 19.125 -19.75 C 18.789062 -19.28125 18.425781 -18.875 18.03125 -18.53125 C 17.632812 -18.195312 17.257812 -17.882812 16.90625 -17.59375 C 16.550781 -17.3125 16.234375 -17.03125 15.953125 -16.75 C 15.671875 -16.46875 15.488281 -16.15625 15.40625 -15.8125 L 14.859375 -13.546875 L 10.5625 -13.546875 L 10.109375 -16.25 C 10.015625 -16.84375 10.050781 -17.351562 10.21875 -17.78125 C 10.394531 -18.207031 10.644531 -18.59375 10.96875 -18.9375 C 11.289062 -19.289062 11.65625 -19.609375 12.0625 -19.890625 C 12.46875 -20.179688 12.847656 -20.488281 13.203125 -20.8125 C 13.554688 -21.132812 13.847656 -21.488281 14.078125 -21.875 C 14.316406 -22.257812 14.4375 -22.726562 14.4375 -23.28125 C 14.4375 -23.789062 14.269531 -24.203125 13.9375 -24.515625 C 13.601562 -24.828125 13.085938 -24.984375 12.390625 -24.984375 C 11.828125 -24.984375 11.359375 -24.929688 10.984375 -24.828125 C 10.617188 -24.734375 10.300781 -24.625 10.03125 -24.5 C 9.757812 -24.375 9.515625 -24.257812 9.296875 -24.15625 C 9.085938 -24.0625 8.859375 -24.015625 8.609375 -24.015625 C 8.015625 -24.015625 7.585938 -24.265625 7.328125 -24.765625 Z M 9.109375 -7.59375 C 9.109375 -8.050781 9.191406 -8.484375 9.359375 -8.890625 C 9.535156 -9.304688 9.773438 -9.664062 10.078125 -9.96875 C 10.378906 -10.28125 10.738281 -10.519531 11.15625 -10.6875 C 11.570312 -10.863281 12.023438 -10.953125 12.515625 -10.953125 C 12.972656 -10.953125 13.40625 -10.863281 13.8125 -10.6875 C 14.226562 -10.519531 14.585938 -10.28125 14.890625 -9.96875 C 15.203125 -9.664062 15.441406 -9.304688 15.609375 -8.890625 C 15.785156 -8.484375 15.875 -8.050781 15.875 -7.59375 C 15.875 -7.113281 15.785156 -6.671875 15.609375 -6.265625 C 15.441406 -5.867188 15.203125 -5.515625 14.890625 -5.203125 C 14.585938 -4.898438 14.226562 -4.660156 13.8125 -4.484375 C 13.40625 -4.316406 12.972656 -4.234375 12.515625 -4.234375 C 12.023438 -4.234375 11.570312 -4.316406 11.15625 -4.484375 C 10.738281 -4.660156 10.378906 -4.898438 10.078125 -5.203125 C 9.773438 -5.515625 9.535156 -5.867188 9.359375 -6.265625 C 9.191406 -6.671875 9.109375 -7.113281 9.109375 -7.59375 Z M 0.984375 -34.578125 L 25.296875 -34.578125 L 25.296875 0 L 0.984375 0 Z M 2.59375 -1.703125 L 23.46875 -1.703125 L 23.46875 -32.875 L 2.59375 -32.875 Z M 2.59375 -1.703125 "/>
</symbol>
<symbol overflow="visible" id="glyph0-1">
<path style="stroke:none;" d="M 30.765625 -16.453125 C 30.765625 -14.046875 30.382812 -11.832031 29.625 -9.8125 C 28.875 -7.789062 27.800781 -6.050781 26.40625 -4.59375 C 25.007812 -3.144531 23.328125 -2.015625 21.359375 -1.203125 C 19.398438 -0.398438 17.226562 0 14.84375 0 L 2.875 0 L 2.875 -32.84375 L 14.84375 -32.84375 C 17.226562 -32.84375 19.398438 -32.4375 21.359375 -31.625 C 23.328125 -30.820312 25.007812 -29.691406 26.40625 -28.234375 C 27.800781 -26.785156 28.875 -25.054688 29.625 -23.046875 C 30.382812 -21.035156 30.765625 -18.835938 30.765625 -16.453125 Z M 24.171875 -16.453125 C 24.171875 -18.191406 23.953125 -19.753906 23.515625 -21.140625 C 23.085938 -22.523438 22.472656 -23.703125 21.671875 -24.671875 C 20.878906 -25.648438 19.90625 -26.398438 18.75 -26.921875 C 17.59375 -27.441406 16.289062 -27.703125 14.84375 -27.703125 L 9.40625 -27.703125 L 9.40625 -5.171875 L 14.84375 -5.171875 C 16.289062 -5.171875 17.59375 -5.425781 18.75 -5.9375 C 19.90625 -6.445312 20.878906 -7.1875 21.671875 -8.15625 C 22.472656 -9.132812 23.085938 -10.316406 23.515625 -11.703125 C 23.953125 -13.097656 24.171875 -14.679688 24.171875 -16.453125 Z M 24.171875 -16.453125 "/>
</symbol>
<symbol overflow="visible" id="glyph0-2">
<path style="stroke:none;" d="M 13.328125 -24.953125 C 14.878906 -24.953125 16.304688 -24.703125 17.609375 -24.203125 C 18.910156 -23.703125 20.03125 -22.976562 20.96875 -22.03125 C 21.914062 -21.082031 22.648438 -19.914062 23.171875 -18.53125 C 23.703125 -17.144531 23.96875 -15.5625 23.96875 -13.78125 C 23.96875 -13.300781 23.941406 -12.90625 23.890625 -12.59375 C 23.835938 -12.289062 23.757812 -12.046875 23.65625 -11.859375 C 23.550781 -11.679688 23.398438 -11.554688 23.203125 -11.484375 C 23.015625 -11.410156 22.785156 -11.375 22.515625 -11.375 L 7.8125 -11.375 C 7.914062 -10.1875 8.128906 -9.15625 8.453125 -8.28125 C 8.785156 -7.40625 9.222656 -6.6875 9.765625 -6.125 C 10.316406 -5.570312 10.960938 -5.160156 11.703125 -4.890625 C 12.441406 -4.617188 13.265625 -4.484375 14.171875 -4.484375 C 15.078125 -4.484375 15.863281 -4.59375 16.53125 -4.8125 C 17.195312 -5.03125 17.78125 -5.265625 18.28125 -5.515625 C 18.789062 -5.773438 19.242188 -6.015625 19.640625 -6.234375 C 20.035156 -6.460938 20.421875 -6.578125 20.796875 -6.578125 C 21.265625 -6.578125 21.644531 -6.390625 21.9375 -6.015625 L 23.75 -3.6875 C 23.070312 -2.894531 22.316406 -2.238281 21.484375 -1.71875 C 20.660156 -1.195312 19.804688 -0.785156 18.921875 -0.484375 C 18.046875 -0.179688 17.15625 0.0351562 16.25 0.171875 C 15.34375 0.304688 14.46875 0.375 13.625 0.375 C 11.925781 0.375 10.34375 0.09375 8.875 -0.46875 C 7.40625 -1.03125 6.125 -1.867188 5.03125 -2.984375 C 3.945312 -4.097656 3.097656 -5.472656 2.484375 -7.109375 C 1.867188 -8.753906 1.5625 -10.65625 1.5625 -12.8125 C 1.5625 -14.476562 1.832031 -16.046875 2.375 -17.515625 C 2.914062 -18.992188 3.691406 -20.28125 4.703125 -21.375 C 5.722656 -22.476562 6.957031 -23.347656 8.40625 -23.984375 C 9.863281 -24.628906 11.503906 -24.953125 13.328125 -24.953125 Z M 13.453125 -20.484375 C 11.859375 -20.484375 10.601562 -20.015625 9.6875 -19.078125 C 8.78125 -18.148438 8.195312 -16.835938 7.9375 -15.140625 L 18.328125 -15.140625 C 18.328125 -15.847656 18.234375 -16.519531 18.046875 -17.15625 C 17.859375 -17.800781 17.5625 -18.367188 17.15625 -18.859375 C 16.75 -19.359375 16.238281 -19.753906 15.625 -20.046875 C 15.019531 -20.335938 14.296875 -20.484375 13.453125 -20.484375 Z M 13.453125 -20.484375 "/>
</symbol>
<symbol overflow="visible" id="glyph0-3">
<path style="stroke:none;" d="M 14.84375 0 L 9.125 0 L 0.265625 -24.5625 L 5.46875 -24.5625 C 5.925781 -24.5625 6.304688 -24.445312 6.609375 -24.21875 C 6.921875 -24 7.132812 -23.734375 7.25 -23.421875 L 10.828125 -10.890625 C 11.335938 -9.367188 11.742188 -7.84375 12.046875 -6.3125 C 12.210938 -7.0625 12.394531 -7.8125 12.59375 -8.5625 C 12.800781 -9.320312 13.046875 -10.097656 13.328125 -10.890625 L 17.046875 -23.421875 C 17.160156 -23.753906 17.363281 -24.023438 17.65625 -24.234375 C 17.957031 -24.453125 18.3125 -24.5625 18.71875 -24.5625 L 23.703125 -24.5625 Z M 14.84375 0 "/>
</symbol>
<symbol overflow="visible" id="glyph0-4">
<path style="stroke:none;" d="M 9.375 -35.546875 L 9.375 0 L 3.09375 0 L 3.09375 -35.546875 Z M 9.375 -35.546875 "/>
</symbol>
<symbol overflow="visible" id="glyph0-5">
<path style="stroke:none;" d="M 13.65625 -24.953125 C 15.445312 -24.953125 17.082031 -24.660156 18.5625 -24.078125 C 20.050781 -23.492188 21.320312 -22.648438 22.375 -21.546875 C 23.4375 -20.453125 24.253906 -19.125 24.828125 -17.5625 C 25.410156 -16.007812 25.703125 -14.269531 25.703125 -12.34375 C 25.703125 -10.382812 25.410156 -8.617188 24.828125 -7.046875 C 24.253906 -5.484375 23.4375 -4.148438 22.375 -3.046875 C 21.320312 -1.953125 20.050781 -1.109375 18.5625 -0.515625 C 17.082031 0.078125 15.445312 0.375 13.65625 0.375 C 11.84375 0.375 10.1875 0.078125 8.6875 -0.515625 C 7.195312 -1.109375 5.921875 -1.953125 4.859375 -3.046875 C 3.796875 -4.148438 2.972656 -5.484375 2.390625 -7.046875 C 1.816406 -8.617188 1.53125 -10.382812 1.53125 -12.34375 C 1.53125 -14.269531 1.816406 -16.007812 2.390625 -17.5625 C 2.972656 -19.125 3.796875 -20.453125 4.859375 -21.546875 C 5.921875 -22.648438 7.195312 -23.492188 8.6875 -24.078125 C 10.1875 -24.660156 11.84375 -24.953125 13.65625 -24.953125 Z M 13.65625 -4.421875 C 15.550781 -4.421875 16.953125 -5.082031 17.859375 -6.40625 C 18.765625 -7.738281 19.21875 -9.703125 19.21875 -12.296875 C 19.21875 -14.878906 18.765625 -16.832031 17.859375 -18.15625 C 16.953125 -19.488281 15.550781 -20.15625 13.65625 -20.15625 C 11.726562 -20.15625 10.304688 -19.488281 9.390625 -18.15625 C 8.472656 -16.832031 8.015625 -14.878906 8.015625 -12.296875 C 8.015625 -9.703125 8.472656 -7.738281 9.390625 -6.40625 C 10.304688 -5.082031 11.726562 -4.421875 13.65625 -4.421875 Z M 13.65625 -4.421875 "/>
</symbol>
<symbol overflow="visible" id="glyph0-6">
<path style="stroke:none;" d="M 3.046875 7.96875 L 3.046875 -24.5625 L 6.90625 -24.5625 C 7.300781 -24.5625 7.632812 -24.46875 7.90625 -24.28125 C 8.175781 -24.101562 8.351562 -23.828125 8.4375 -23.453125 L 8.953125 -21.296875 C 9.453125 -21.835938 9.972656 -22.335938 10.515625 -22.796875 C 11.054688 -23.265625 11.644531 -23.660156 12.28125 -23.984375 C 12.914062 -24.316406 13.597656 -24.570312 14.328125 -24.75 C 15.066406 -24.9375 15.863281 -25.03125 16.71875 -25.03125 C 18.019531 -25.03125 19.210938 -24.75 20.296875 -24.1875 C 21.390625 -23.625 22.332031 -22.8125 23.125 -21.75 C 23.914062 -20.6875 24.53125 -19.367188 24.96875 -17.796875 C 25.40625 -16.234375 25.625 -14.457031 25.625 -12.46875 C 25.625 -10.632812 25.375 -8.929688 24.875 -7.359375 C 24.382812 -5.796875 23.6875 -4.441406 22.78125 -3.296875 C 21.875 -2.148438 20.78125 -1.25 19.5 -0.59375 C 18.226562 0.0507812 16.800781 0.375 15.21875 0.375 C 13.875 0.375 12.738281 0.171875 11.8125 -0.234375 C 10.894531 -0.640625 10.066406 -1.1875 9.328125 -1.875 L 9.328125 7.96875 Z M 14.5625 -20.0625 C 13.394531 -20.0625 12.40625 -19.828125 11.59375 -19.359375 C 10.789062 -18.890625 10.035156 -18.207031 9.328125 -17.3125 L 9.328125 -6.4375 C 9.953125 -5.675781 10.628906 -5.140625 11.359375 -4.828125 C 12.097656 -4.523438 12.890625 -4.375 13.734375 -4.375 C 14.535156 -4.375 15.269531 -4.535156 15.9375 -4.859375 C 16.601562 -5.179688 17.175781 -5.671875 17.65625 -6.328125 C 18.132812 -6.992188 18.5 -7.832031 18.75 -8.84375 C 19.007812 -9.851562 19.140625 -11.0625 19.140625 -12.46875 C 19.140625 -13.851562 19.03125 -15.023438 18.8125 -15.984375 C 18.601562 -16.953125 18.300781 -17.738281 17.90625 -18.34375 C 17.507812 -18.945312 17.03125 -19.382812 16.46875 -19.65625 C 15.90625 -19.925781 15.269531 -20.0625 14.5625 -20.0625 Z M 14.5625 -20.0625 "/>
</symbol>
<symbol overflow="visible" id="glyph0-7">
<path style="stroke:none;" d="M 3.171875 0 L 3.171875 -24.5625 L 7.03125 -24.5625 C 7.425781 -24.5625 7.757812 -24.46875 8.03125 -24.28125 C 8.300781 -24.101562 8.476562 -23.828125 8.5625 -23.453125 L 8.984375 -21.71875 C 9.421875 -22.175781 9.875 -22.601562 10.34375 -23 C 10.820312 -23.394531 11.332031 -23.738281 11.875 -24.03125 C 12.414062 -24.320312 12.992188 -24.546875 13.609375 -24.703125 C 14.234375 -24.867188 14.914062 -24.953125 15.65625 -24.953125 C 17.21875 -24.953125 18.503906 -24.535156 19.515625 -23.703125 C 20.535156 -22.867188 21.296875 -21.769531 21.796875 -20.40625 C 22.191406 -21.21875 22.679688 -21.910156 23.265625 -22.484375 C 23.847656 -23.054688 24.492188 -23.523438 25.203125 -23.890625 C 25.910156 -24.253906 26.65625 -24.519531 27.4375 -24.6875 C 28.226562 -24.863281 29.019531 -24.953125 29.8125 -24.953125 C 31.1875 -24.953125 32.414062 -24.742188 33.5 -24.328125 C 34.582031 -23.910156 35.488281 -23.300781 36.21875 -22.5 C 36.957031 -21.695312 37.515625 -20.71875 37.890625 -19.5625 C 38.273438 -18.40625 38.46875 -17.09375 38.46875 -15.625 L 38.46875 0 L 32.171875 0 L 32.171875 -15.625 C 32.171875 -18.582031 30.851562 -20.0625 28.21875 -20.0625 C 27.625 -20.0625 27.070312 -19.960938 26.5625 -19.765625 C 26.050781 -19.578125 25.601562 -19.296875 25.21875 -18.921875 C 24.832031 -18.554688 24.523438 -18.097656 24.296875 -17.546875 C 24.078125 -16.992188 23.96875 -16.351562 23.96875 -15.625 L 23.96875 0 L 17.6875 0 L 17.6875 -15.625 C 17.6875 -17.207031 17.351562 -18.34375 16.6875 -19.03125 C 16.03125 -19.71875 15.078125 -20.0625 13.828125 -20.0625 C 12.984375 -20.0625 12.195312 -19.867188 11.46875 -19.484375 C 10.75 -19.109375 10.078125 -18.578125 9.453125 -17.890625 L 9.453125 0 Z M 3.171875 0 "/>
</symbol>
<symbol overflow="visible" id="glyph0-8">
<path style="stroke:none;" d="M 3.0625 0 L 3.0625 -24.5625 L 6.921875 -24.5625 C 7.316406 -24.5625 7.648438 -24.46875 7.921875 -24.28125 C 8.191406 -24.101562 8.367188 -23.828125 8.453125 -23.453125 L 8.875 -21.640625 C 9.375 -22.140625 9.882812 -22.585938 10.40625 -22.984375 C 10.9375 -23.390625 11.503906 -23.738281 12.109375 -24.03125 C 12.722656 -24.320312 13.375 -24.546875 14.0625 -24.703125 C 14.75 -24.867188 15.503906 -24.953125 16.328125 -24.953125 C 17.660156 -24.953125 18.835938 -24.722656 19.859375 -24.265625 C 20.878906 -23.804688 21.734375 -23.160156 22.421875 -22.328125 C 23.117188 -21.503906 23.644531 -20.519531 24 -19.375 C 24.351562 -18.226562 24.53125 -16.976562 24.53125 -15.625 L 24.53125 0 L 18.25 0 L 18.25 -15.625 C 18.25 -17.03125 17.925781 -18.117188 17.28125 -18.890625 C 16.644531 -19.671875 15.679688 -20.0625 14.390625 -20.0625 C 13.429688 -20.0625 12.535156 -19.851562 11.703125 -19.4375 C 10.878906 -19.03125 10.09375 -18.453125 9.34375 -17.703125 L 9.34375 0 Z M 3.0625 0 "/>
</symbol>
<symbol overflow="visible" id="glyph0-9">
<path style="stroke:none;" d="M 10.484375 0.375 C 8.359375 0.375 6.726562 -0.238281 5.59375 -1.46875 C 4.457031 -2.695312 3.890625 -4.382812 3.890625 -6.53125 L 3.890625 -19.9375 L 1.65625 -19.9375 C 1.320312 -19.9375 1.039062 -20.046875 0.8125 -20.265625 C 0.582031 -20.492188 0.46875 -20.820312 0.46875 -21.25 L 0.46875 -23.75 L 4.203125 -24.46875 L 5.515625 -30.9375 C 5.660156 -31.613281 6.125 -31.953125 6.90625 -31.953125 L 10.171875 -31.953125 L 10.171875 -24.390625 L 16.21875 -24.390625 L 16.21875 -19.9375 L 10.171875 -19.9375 L 10.171875 -6.953125 C 10.171875 -6.222656 10.328125 -5.65625 10.640625 -5.25 C 10.953125 -4.851562 11.394531 -4.65625 11.96875 -4.65625 C 12.28125 -4.65625 12.539062 -4.691406 12.75 -4.765625 C 12.957031 -4.835938 13.132812 -4.921875 13.28125 -5.015625 C 13.425781 -5.117188 13.5625 -5.207031 13.6875 -5.28125 C 13.8125 -5.351562 13.945312 -5.390625 14.09375 -5.390625 C 14.28125 -5.390625 14.429688 -5.34375 14.546875 -5.25 C 14.660156 -5.164062 14.785156 -5.023438 14.921875 -4.828125 L 16.8125 -1.78125 C 15.957031 -1.070312 14.984375 -0.535156 13.890625 -0.171875 C 12.796875 0.191406 11.660156 0.375 10.484375 0.375 Z M 10.484375 0.375 "/>
</symbol>
<symbol overflow="visible" id="glyph0-10">
<path style="stroke:none;" d=""/>
</symbol>
<symbol overflow="visible" id="glyph0-11">
<path style="stroke:none;" d="M 24.640625 -32.84375 L 24.640625 -27.546875 L 15.78125 -27.546875 L 15.78125 0 L 9.296875 0 L 9.296875 -27.546875 L 0.4375 -27.546875 L 0.4375 -32.84375 Z M 24.640625 -32.84375 "/>
</symbol>
<symbol overflow="visible" id="glyph0-12">
<path style="stroke:none;" d="M 19.515625 0 C 18.921875 0 18.46875 -0.0820312 18.15625 -0.25 C 17.84375 -0.425781 17.59375 -0.78125 17.40625 -1.3125 L 16.875 -2.9375 C 16.238281 -2.394531 15.632812 -1.914062 15.0625 -1.5 C 14.488281 -1.09375 13.890625 -0.75 13.265625 -0.46875 C 12.648438 -0.1875 11.988281 0.0195312 11.28125 0.15625 C 10.582031 0.300781 9.804688 0.375 8.953125 0.375 C 7.898438 0.375 6.9375 0.226562 6.0625 -0.0625 C 5.1875 -0.351562 4.429688 -0.773438 3.796875 -1.328125 C 3.160156 -1.890625 2.671875 -2.585938 2.328125 -3.421875 C 1.984375 -4.253906 1.8125 -5.21875 1.8125 -6.3125 C 1.8125 -7.21875 2.039062 -8.125 2.5 -9.03125 C 2.957031 -9.9375 3.742188 -10.753906 4.859375 -11.484375 C 5.972656 -12.222656 7.457031 -12.832031 9.3125 -13.3125 C 11.164062 -13.800781 13.476562 -14.078125 16.25 -14.140625 L 16.25 -15.453125 C 16.25 -17.035156 15.914062 -18.195312 15.25 -18.9375 C 14.59375 -19.6875 13.648438 -20.0625 12.421875 -20.0625 C 11.492188 -20.0625 10.726562 -19.953125 10.125 -19.734375 C 9.519531 -19.523438 8.988281 -19.289062 8.53125 -19.03125 C 8.070312 -18.78125 7.644531 -18.546875 7.25 -18.328125 C 6.851562 -18.109375 6.40625 -18 5.90625 -18 C 5.476562 -18 5.113281 -18.109375 4.8125 -18.328125 C 4.507812 -18.554688 4.265625 -18.828125 4.078125 -19.140625 L 2.9375 -21.125 C 4.363281 -22.445312 5.929688 -23.425781 7.640625 -24.0625 C 9.359375 -24.707031 11.210938 -25.03125 13.203125 -25.03125 C 14.640625 -25.03125 15.925781 -24.796875 17.0625 -24.328125 C 18.207031 -23.859375 19.171875 -23.195312 19.953125 -22.34375 C 20.742188 -21.5 21.347656 -20.488281 21.765625 -19.3125 C 22.179688 -18.144531 22.390625 -16.859375 22.390625 -15.453125 L 22.390625 0 Z M 10.90625 -3.90625 C 12.03125 -3.90625 13 -4.109375 13.8125 -4.515625 C 14.625 -4.921875 15.4375 -5.539062 16.25 -6.375 L 16.25 -10.34375 C 14.613281 -10.269531 13.253906 -10.128906 12.171875 -9.921875 C 11.097656 -9.722656 10.238281 -9.460938 9.59375 -9.140625 C 8.945312 -8.816406 8.488281 -8.441406 8.21875 -8.015625 C 7.945312 -7.585938 7.8125 -7.125 7.8125 -6.625 C 7.8125 -5.632812 8.085938 -4.929688 8.640625 -4.515625 C 9.191406 -4.109375 9.945312 -3.90625 10.90625 -3.90625 Z M 10.90625 -3.90625 "/>
</symbol>
<symbol overflow="visible" id="glyph0-13">
<path style="stroke:none;" d="M 17.3125 -19.609375 C 17.144531 -19.328125 16.96875 -19.132812 16.78125 -19.03125 C 16.59375 -18.925781 16.359375 -18.875 16.078125 -18.875 C 15.773438 -18.875 15.460938 -18.953125 15.140625 -19.109375 C 14.828125 -19.265625 14.472656 -19.4375 14.078125 -19.625 C 13.691406 -19.8125 13.25 -19.984375 12.75 -20.140625 C 12.257812 -20.296875 11.695312 -20.375 11.0625 -20.375 C 10.070312 -20.375 9.300781 -20.144531 8.75 -19.6875 C 8.207031 -19.238281 7.9375 -18.640625 7.9375 -17.890625 C 7.9375 -17.367188 8.09375 -16.941406 8.40625 -16.609375 C 8.71875 -16.273438 9.132812 -15.976562 9.65625 -15.71875 C 10.175781 -15.457031 10.757812 -15.21875 11.40625 -15 C 12.0625 -14.789062 12.734375 -14.5625 13.421875 -14.3125 C 14.117188 -14.070312 14.789062 -13.78125 15.4375 -13.4375 C 16.09375 -13.101562 16.679688 -12.6875 17.203125 -12.1875 C 17.722656 -11.695312 18.140625 -11.097656 18.453125 -10.390625 C 18.765625 -9.679688 18.921875 -8.832031 18.921875 -7.84375 C 18.921875 -6.65625 18.710938 -5.554688 18.296875 -4.546875 C 17.890625 -3.546875 17.285156 -2.679688 16.484375 -1.953125 C 15.679688 -1.222656 14.691406 -0.648438 13.515625 -0.234375 C 12.335938 0.171875 10.972656 0.375 9.421875 0.375 C 8.628906 0.375 7.84375 0.296875 7.0625 0.140625 C 6.289062 -0.00390625 5.550781 -0.210938 4.84375 -0.484375 C 4.132812 -0.753906 3.46875 -1.070312 2.84375 -1.4375 C 2.226562 -1.800781 1.703125 -2.195312 1.265625 -2.625 L 2.71875 -5 C 2.90625 -5.28125 3.117188 -5.5 3.359375 -5.65625 C 3.609375 -5.820312 3.929688 -5.90625 4.328125 -5.90625 C 4.691406 -5.90625 5.035156 -5.804688 5.359375 -5.609375 C 5.679688 -5.410156 6.03125 -5.191406 6.40625 -4.953125 C 6.78125 -4.710938 7.234375 -4.492188 7.765625 -4.296875 C 8.296875 -4.097656 8.957031 -4 9.75 -4 C 10.34375 -4 10.847656 -4.070312 11.265625 -4.21875 C 11.679688 -4.375 12.019531 -4.578125 12.28125 -4.828125 C 12.539062 -5.085938 12.726562 -5.378906 12.84375 -5.703125 C 12.96875 -6.035156 13.03125 -6.378906 13.03125 -6.734375 C 13.03125 -7.453125 12.757812 -8.015625 12.21875 -8.421875 C 11.675781 -8.828125 10.988281 -9.175781 10.15625 -9.46875 C 9.332031 -9.769531 8.445312 -10.078125 7.5 -10.390625 C 6.550781 -10.703125 5.664062 -11.128906 4.84375 -11.671875 C 4.019531 -12.210938 3.335938 -12.925781 2.796875 -13.8125 C 2.253906 -14.707031 1.984375 -15.890625 1.984375 -17.359375 C 1.984375 -18.378906 2.171875 -19.347656 2.546875 -20.265625 C 2.921875 -21.179688 3.484375 -21.984375 4.234375 -22.671875 C 4.992188 -23.367188 5.925781 -23.921875 7.03125 -24.328125 C 8.144531 -24.742188 9.445312 -24.953125 10.9375 -24.953125 C 11.738281 -24.953125 12.519531 -24.878906 13.28125 -24.734375 C 14.039062 -24.585938 14.753906 -24.378906 15.421875 -24.109375 C 16.085938 -23.835938 16.695312 -23.507812 17.25 -23.125 C 17.800781 -22.75 18.289062 -22.335938 18.71875 -21.890625 Z M 17.3125 -19.609375 "/>
</symbol>
<symbol overflow="visible" id="glyph1-0">
<path style="stroke:none;" d="M 1.234375 -5.640625 C 1.316406 -5.710938 1.40625 -5.78125 1.5 -5.84375 C 1.59375 -5.90625 1.695312 -5.957031 1.8125 -6 C 1.925781 -6.050781 2.046875 -6.085938 2.171875 -6.109375 C 2.304688 -6.140625 2.445312 -6.15625 2.59375 -6.15625 C 2.800781 -6.15625 2.988281 -6.125 3.15625 -6.0625 C 3.332031 -6.007812 3.476562 -5.929688 3.59375 -5.828125 C 3.71875 -5.722656 3.8125 -5.59375 3.875 -5.4375 C 3.945312 -5.289062 3.984375 -5.125 3.984375 -4.9375 C 3.984375 -4.757812 3.957031 -4.601562 3.90625 -4.46875 C 3.863281 -4.34375 3.804688 -4.226562 3.734375 -4.125 C 3.660156 -4.03125 3.578125 -3.945312 3.484375 -3.875 C 3.398438 -3.800781 3.316406 -3.734375 3.234375 -3.671875 C 3.148438 -3.609375 3.078125 -3.546875 3.015625 -3.484375 C 2.960938 -3.429688 2.929688 -3.363281 2.921875 -3.28125 L 2.84375 -2.78125 L 2.234375 -2.78125 L 2.15625 -3.359375 C 2.144531 -3.460938 2.160156 -3.554688 2.203125 -3.640625 C 2.242188 -3.722656 2.300781 -3.800781 2.375 -3.875 C 2.457031 -3.945312 2.539062 -4.015625 2.625 -4.078125 C 2.71875 -4.140625 2.800781 -4.207031 2.875 -4.28125 C 2.957031 -4.363281 3.023438 -4.453125 3.078125 -4.546875 C 3.128906 -4.640625 3.15625 -4.753906 3.15625 -4.890625 C 3.15625 -5.054688 3.09375 -5.1875 2.96875 -5.28125 C 2.851562 -5.375 2.707031 -5.421875 2.53125 -5.421875 C 2.394531 -5.421875 2.28125 -5.40625 2.1875 -5.375 C 2.09375 -5.351562 2.007812 -5.320312 1.9375 -5.28125 C 1.875 -5.25 1.820312 -5.21875 1.78125 -5.1875 C 1.738281 -5.15625 1.695312 -5.140625 1.65625 -5.140625 C 1.570312 -5.140625 1.507812 -5.175781 1.46875 -5.25 Z M 1.953125 -1.453125 C 1.953125 -1.523438 1.960938 -1.59375 1.984375 -1.65625 C 2.015625 -1.726562 2.054688 -1.789062 2.109375 -1.84375 C 2.160156 -1.894531 2.21875 -1.929688 2.28125 -1.953125 C 2.351562 -1.984375 2.425781 -2 2.5 -2 C 2.570312 -2 2.640625 -1.984375 2.703125 -1.953125 C 2.773438 -1.929688 2.832031 -1.894531 2.875 -1.84375 C 2.925781 -1.789062 2.96875 -1.726562 3 -1.65625 C 3.03125 -1.59375 3.046875 -1.523438 3.046875 -1.453125 C 3.046875 -1.367188 3.03125 -1.289062 3 -1.21875 C 2.96875 -1.15625 2.925781 -1.097656 2.875 -1.046875 C 2.832031 -1.003906 2.773438 -0.96875 2.703125 -0.9375 C 2.640625 -0.914062 2.570312 -0.90625 2.5 -0.90625 C 2.425781 -0.90625 2.351562 -0.914062 2.28125 -0.9375 C 2.21875 -0.96875 2.160156 -1.003906 2.109375 -1.046875 C 2.054688 -1.097656 2.015625 -1.15625 1.984375 -1.21875 C 1.960938 -1.289062 1.953125 -1.367188 1.953125 -1.453125 Z M 0.21875 -7.078125 L 5.046875 -7.078125 L 5.046875 0 L 0.21875 0 Z M 0.46875 -0.265625 L 4.765625 -0.265625 L 4.765625 -6.8125 L 0.46875 -6.8125 Z M 0.46875 -0.265625 "/>
</symbol>
<symbol overflow="visible" id="glyph1-1">
<path style="stroke:none;" d="M 0.46875 0 Z M 2.765625 -6.796875 C 3.046875 -6.796875 3.304688 -6.753906 3.546875 -6.671875 C 3.785156 -6.585938 3.992188 -6.460938 4.171875 -6.296875 C 4.359375 -6.140625 4.5 -5.945312 4.59375 -5.71875 C 4.695312 -5.488281 4.75 -5.222656 4.75 -4.921875 C 4.75 -4.671875 4.710938 -4.4375 4.640625 -4.21875 C 4.566406 -4.007812 4.46875 -3.804688 4.34375 -3.609375 C 4.21875 -3.421875 4.070312 -3.234375 3.90625 -3.046875 C 3.738281 -2.859375 3.566406 -2.671875 3.390625 -2.484375 L 1.671875 -0.6875 C 1.796875 -0.726562 1.921875 -0.757812 2.046875 -0.78125 C 2.179688 -0.800781 2.3125 -0.8125 2.4375 -0.8125 L 4.5625 -0.8125 C 4.65625 -0.8125 4.726562 -0.785156 4.78125 -0.734375 C 4.84375 -0.679688 4.875 -0.609375 4.875 -0.515625 L 4.875 0 L 0.46875 0 L 0.46875 -0.296875 C 0.46875 -0.347656 0.476562 -0.40625 0.5 -0.46875 C 0.53125 -0.539062 0.570312 -0.601562 0.625 -0.65625 L 2.71875 -2.8125 C 2.894531 -2.988281 3.050781 -3.160156 3.1875 -3.328125 C 3.332031 -3.492188 3.453125 -3.660156 3.546875 -3.828125 C 3.648438 -4.003906 3.726562 -4.175781 3.78125 -4.34375 C 3.832031 -4.519531 3.859375 -4.707031 3.859375 -4.90625 C 3.859375 -5.101562 3.828125 -5.273438 3.765625 -5.421875 C 3.710938 -5.566406 3.632812 -5.6875 3.53125 -5.78125 C 3.425781 -5.875 3.300781 -5.945312 3.15625 -6 C 3.019531 -6.050781 2.875 -6.078125 2.71875 -6.078125 C 2.550781 -6.078125 2.398438 -6.050781 2.265625 -6 C 2.128906 -5.945312 2.007812 -5.875 1.90625 -5.78125 C 1.800781 -5.695312 1.707031 -5.59375 1.625 -5.46875 C 1.550781 -5.351562 1.5 -5.222656 1.46875 -5.078125 C 1.445312 -4.960938 1.398438 -4.882812 1.328125 -4.84375 C 1.265625 -4.8125 1.171875 -4.804688 1.046875 -4.828125 L 0.609375 -4.90625 C 0.648438 -5.207031 0.734375 -5.476562 0.859375 -5.71875 C 0.984375 -5.957031 1.140625 -6.15625 1.328125 -6.3125 C 1.515625 -6.476562 1.726562 -6.597656 1.96875 -6.671875 C 2.21875 -6.753906 2.484375 -6.796875 2.765625 -6.796875 Z M 2.765625 -6.796875 "/>
</symbol>
<symbol overflow="visible" id="glyph1-2">
<path style="stroke:none;" d="M 2.65625 0.078125 C 2.320312 0.078125 2.019531 0.03125 1.75 -0.0625 C 1.476562 -0.15625 1.242188 -0.289062 1.046875 -0.46875 C 0.847656 -0.644531 0.691406 -0.859375 0.578125 -1.109375 C 0.472656 -1.359375 0.421875 -1.632812 0.421875 -1.9375 C 0.421875 -2.394531 0.523438 -2.769531 0.734375 -3.0625 C 0.953125 -3.351562 1.269531 -3.5625 1.6875 -3.6875 C 1.34375 -3.820312 1.082031 -4.023438 0.90625 -4.296875 C 0.726562 -4.578125 0.640625 -4.910156 0.640625 -5.296875 C 0.640625 -5.554688 0.6875 -5.800781 0.78125 -6.03125 C 0.882812 -6.257812 1.023438 -6.457031 1.203125 -6.625 C 1.378906 -6.789062 1.585938 -6.921875 1.828125 -7.015625 C 2.078125 -7.109375 2.351562 -7.15625 2.65625 -7.15625 C 2.957031 -7.15625 3.226562 -7.109375 3.46875 -7.015625 C 3.71875 -6.921875 3.929688 -6.789062 4.109375 -6.625 C 4.285156 -6.457031 4.421875 -6.257812 4.515625 -6.03125 C 4.617188 -5.800781 4.671875 -5.554688 4.671875 -5.296875 C 4.671875 -4.910156 4.582031 -4.578125 4.40625 -4.296875 C 4.226562 -4.023438 3.960938 -3.820312 3.609375 -3.6875 C 4.035156 -3.5625 4.351562 -3.351562 4.5625 -3.0625 C 4.78125 -2.769531 4.890625 -2.394531 4.890625 -1.9375 C 4.890625 -1.632812 4.832031 -1.359375 4.71875 -1.109375 C 4.613281 -0.859375 4.460938 -0.644531 4.265625 -0.46875 C 4.078125 -0.289062 3.84375 -0.15625 3.5625 -0.0625 C 3.289062 0.03125 2.988281 0.078125 2.65625 0.078125 Z M 2.65625 -0.640625 C 2.863281 -0.640625 3.046875 -0.671875 3.203125 -0.734375 C 3.367188 -0.796875 3.503906 -0.882812 3.609375 -1 C 3.722656 -1.113281 3.8125 -1.25 3.875 -1.40625 C 3.9375 -1.570312 3.96875 -1.753906 3.96875 -1.953125 C 3.96875 -2.191406 3.929688 -2.394531 3.859375 -2.5625 C 3.785156 -2.738281 3.691406 -2.878906 3.578125 -2.984375 C 3.460938 -3.097656 3.320312 -3.179688 3.15625 -3.234375 C 3 -3.285156 2.832031 -3.3125 2.65625 -3.3125 C 2.476562 -3.3125 2.304688 -3.285156 2.140625 -3.234375 C 1.984375 -3.179688 1.847656 -3.097656 1.734375 -2.984375 C 1.617188 -2.878906 1.523438 -2.738281 1.453125 -2.5625 C 1.378906 -2.394531 1.34375 -2.191406 1.34375 -1.953125 C 1.34375 -1.753906 1.367188 -1.570312 1.421875 -1.40625 C 1.484375 -1.25 1.570312 -1.113281 1.6875 -1 C 1.800781 -0.882812 1.9375 -0.796875 2.09375 -0.734375 C 2.257812 -0.671875 2.445312 -0.640625 2.65625 -0.640625 Z M 2.65625 -4.03125 C 2.863281 -4.03125 3.039062 -4.0625 3.1875 -4.125 C 3.332031 -4.195312 3.445312 -4.289062 3.53125 -4.40625 C 3.625 -4.53125 3.6875 -4.664062 3.71875 -4.8125 C 3.757812 -4.96875 3.78125 -5.125 3.78125 -5.28125 C 3.78125 -5.445312 3.753906 -5.597656 3.703125 -5.734375 C 3.660156 -5.878906 3.59375 -6.003906 3.5 -6.109375 C 3.40625 -6.222656 3.285156 -6.3125 3.140625 -6.375 C 3.003906 -6.4375 2.84375 -6.46875 2.65625 -6.46875 C 2.46875 -6.46875 2.300781 -6.4375 2.15625 -6.375 C 2.019531 -6.3125 1.90625 -6.222656 1.8125 -6.109375 C 1.71875 -6.003906 1.644531 -5.878906 1.59375 -5.734375 C 1.550781 -5.597656 1.53125 -5.445312 1.53125 -5.28125 C 1.53125 -5.125 1.546875 -4.96875 1.578125 -4.8125 C 1.617188 -4.664062 1.6875 -4.53125 1.78125 -4.40625 C 1.875 -4.289062 1.988281 -4.195312 2.125 -4.125 C 2.269531 -4.0625 2.445312 -4.03125 2.65625 -4.03125 Z M 2.65625 -4.03125 "/>
</symbol>
</g>
<clipPath id="clip1">
  <path d="M 0 0.28125 L 958.992188 0.28125 L 958.992188 539.695312 L 0 539.695312 Z M 0 0.28125 "/>
</clipPath>
<clipPath id="clip2">
  <path d="M 0 503 L 958.992188 503 L 958.992188 539.695312 L 0 539.695312 Z M 0 503 "/>
</clipPath>
<clipPath id="clip3">
  <path d="M 0 498 L 958.992188 498 L 958.992188 504 L 0 504 Z M 0 498 "/>
</clipPath>
</defs>
<g id="surface1">
<g clip-path="url(#clip1)" clip-rule="nonzero">
<path style=" stroke:none;fill-rule:evenodd;fill:rgb(100%,100%,100%);fill-opacity:1;" d="M 0 0.277344 L 958.992188 0.277344 L 958.992188 539.695312 L 0 539.695312 Z M 0 0.277344 "/>
<path style=" stroke:none;fill-rule:evenodd;fill:rgb(100%,100%,100%);fill-opacity:1;" d="M 0 0.277344 L 959.019531 0.277344 L 959.019531 539.722656 L 0 539.722656 Z M 0 0.277344 "/>
</g>
<g clip-path="url(#clip2)" clip-rule="nonzero">
<path style=" stroke:none;fill-rule:evenodd;fill:rgb(74.116516%,34.507751%,17.253113%);fill-opacity:1;" d="M 479.496094 539.664062 L 0 539.664062 L 0 503.730469 L 958.992188 503.730469 L 958.992188 539.664062 Z M 479.496094 539.664062 "/>
</g>
<g clip-path="url(#clip3)" clip-rule="nonzero">
<path style=" stroke:none;fill-rule:evenodd;fill:rgb(89.4104%,51.371765%,7.05719%);fill-opacity:1;" d="M 479.496094 503.675781 L 0 503.675781 L 0 498.519531 L 958.992188 498.519531 L 958.992188 503.675781 Z M 479.496094 503.675781 "/>
</g>
<path style="fill:none;stroke-width:0.51022;stroke-linecap:butt;stroke-linejoin:round;stroke:rgb(50.195312%,50.195312%,50.195312%);stroke-opacity:1;stroke-miterlimit:10;" d="M 93.967951 403.172424 L 878.769073 403.172424 " transform="matrix(0.998969,0,0,-0.998969,0,539.721697)"/>
<g style="fill:rgb(25.097656%,25.097656%,25.097656%);fill-opacity:1;">
  <use xlink:href="#glyph0-1" x="270.033376" y="285.376135"/>
</g>
<g style="fill:rgb(25.097656%,25.097656%,25.097656%);fill-opacity:1;">
  <use xlink:href="#glyph0-2" x="301.391748" y="285.376135"/>
</g>
<g style="fill:rgb(25.097656%,25.097656%,25.097656%);fill-opacity:1;">
  <use xlink:href="#glyph0-3" x="326.063036" y="285.376135"/>
</g>
<g style="fill:rgb(25.097656%,25.097656%,25.097656%);fill-opacity:1;">
  <use xlink:href="#glyph0-2" x="349.062552" y="285.376135"/>
</g>
<g style="fill:rgb(25.097656%,25.097656%,25.097656%);fill-opacity:1;">
  <use xlink:href="#glyph0-4" x="373.936479" y="285.376135"/>
</g>
<g style="fill:rgb(25.097656%,25.097656%,25.097656%);fill-opacity:1;">
  <use xlink:href="#glyph0-5" x="385.942835" y="285.376135"/>
</g>
<g style="fill:rgb(25.097656%,25.097656%,25.097656%);fill-opacity:1;">
  <use xlink:href="#glyph0-6" x="412.640512" y="285.376135"/>
</g>
<g style="fill:rgb(25.097656%,25.097656%,25.097656%);fill-opacity:1;">
  <use xlink:href="#glyph0-7" x="439.236869" y="285.376135"/>
</g>
<g style="fill:rgb(25.097656%,25.097656%,25.097656%);fill-opacity:1;">
  <use xlink:href="#glyph0-2" x="479.916631" y="285.376135"/>
</g>
<g style="fill:rgb(25.097656%,25.097656%,25.097656%);fill-opacity:1;">
  <use xlink:href="#glyph0-8" x="504.790558" y="285.376135"/>
</g>
<g style="fill:rgb(25.097656%,25.097656%,25.097656%);fill-opacity:1;">
  <use xlink:href="#glyph0-9" x="531.082957" y="285.376135"/>
</g>
<g style="fill:rgb(25.097656%,25.097656%,25.097656%);fill-opacity:1;">
  <use xlink:href="#glyph0-10" x="548.053966" y="285.376135"/>
</g>
<g style="fill:rgb(25.097656%,25.097656%,25.097656%);fill-opacity:1;">
  <use xlink:href="#glyph0-11" x="558.945808" y="285.376135"/>
</g>
<g style="fill:rgb(25.097656%,25.097656%,25.097656%);fill-opacity:1;">
  <use xlink:href="#glyph0-2" x="579.00706" y="285.376135"/>
</g>
<g style="fill:rgb(25.097656%,25.097656%,25.097656%);fill-opacity:1;">
  <use xlink:href="#glyph0-12" x="603.880987" y="285.376135"/>
</g>
<g style="fill:rgb(25.097656%,25.097656%,25.097656%);fill-opacity:1;">
  <use xlink:href="#glyph0-7" x="628.349636" y="285.376135"/>
</g>
<g style="fill:rgb(25.097656%,25.097656%,25.097656%);fill-opacity:1;">
  <use xlink:href="#glyph0-13" x="668.928079" y="285.376135"/>
</g>
<g style="fill:rgb(100%,100%,100%);fill-opacity:1;">
  <use xlink:href="#glyph1-1" x="925.945596" y="514.151081"/>
</g>
<g style="fill:rgb(100%,100%,100%);fill-opacity:1;">
  <use xlink:href="#glyph1-2" x="931.236577" y="514.151081"/>
</g>
</g>
</svg>
